<mxfile host="app.diagrams.net" modified="2021-03-31T14:11:29.502Z" agent="5.0 (Windows NT 10.0; Win64; x64) AppleWebKit/537.36 (KHTML, like Gecko) Chrome/89.0.4389.90 Safari/537.36" etag="BgzzkL1g8w6pPVWA_uv5" version="14.5.3" type="github">
  <diagram id="uhoMKyaDGcmuzJmcMZ8e" name="Page-1">
    <mxGraphModel dx="1038" dy="580" grid="1" gridSize="10" guides="1" tooltips="1" connect="1" arrows="1" fold="1" page="1" pageScale="1" pageWidth="827" pageHeight="1169" math="0" shadow="0">
      <root>
        <mxCell id="0" />
        <mxCell id="1" parent="0" />
        <mxCell id="Nkv6GfmgOxpyfntVbdO0-75" value="" style="edgeStyle=orthogonalEdgeStyle;rounded=1;orthogonalLoop=1;jettySize=auto;html=1;startArrow=none;startFill=0;startSize=6;endArrow=none;endFill=0;strokeColor=#000000;strokeWidth=1;fontSize=10;" parent="1" source="Nkv6GfmgOxpyfntVbdO0-73" target="Nkv6GfmgOxpyfntVbdO0-74" edge="1">
          <mxGeometry relative="1" as="geometry" />
        </mxCell>
        <mxCell id="Nkv6GfmgOxpyfntVbdO0-79" value="" style="edgeStyle=orthogonalEdgeStyle;rounded=1;orthogonalLoop=1;jettySize=auto;html=1;startArrow=none;startFill=0;startSize=6;endArrow=none;endFill=0;strokeColor=#000000;strokeWidth=1;fontSize=10;" parent="1" source="Nkv6GfmgOxpyfntVbdO0-73" target="Nkv6GfmgOxpyfntVbdO0-78" edge="1">
          <mxGeometry relative="1" as="geometry" />
        </mxCell>
        <mxCell id="Nkv6GfmgOxpyfntVbdO0-80" value="" style="edgeStyle=orthogonalEdgeStyle;rounded=1;orthogonalLoop=1;jettySize=auto;html=1;startArrow=block;startFill=0;startSize=6;endArrow=none;endFill=0;strokeColor=#000000;strokeWidth=1;fontSize=10;" parent="1" source="Nkv6GfmgOxpyfntVbdO0-73" target="Nkv6GfmgOxpyfntVbdO0-78" edge="1">
          <mxGeometry relative="1" as="geometry" />
        </mxCell>
        <mxCell id="Nkv6GfmgOxpyfntVbdO0-82" value="" style="edgeStyle=orthogonalEdgeStyle;rounded=1;orthogonalLoop=1;jettySize=auto;html=1;startArrow=block;startFill=0;startSize=6;endArrow=none;endFill=0;strokeColor=#000000;strokeWidth=1;fontSize=10;" parent="1" source="Nkv6GfmgOxpyfntVbdO0-73" target="Nkv6GfmgOxpyfntVbdO0-81" edge="1">
          <mxGeometry relative="1" as="geometry" />
        </mxCell>
        <mxCell id="Nkv6GfmgOxpyfntVbdO0-73" value="Gender" style="html=1;fontSize=10;" parent="1" vertex="1">
          <mxGeometry x="130" y="330" width="110" height="50" as="geometry" />
        </mxCell>
        <mxCell id="Nkv6GfmgOxpyfntVbdO0-77" value="" style="edgeStyle=orthogonalEdgeStyle;rounded=1;orthogonalLoop=1;jettySize=auto;html=1;startArrow=none;startFill=0;startSize=6;endArrow=none;endFill=0;strokeColor=#000000;strokeWidth=1;fontSize=10;" parent="1" source="Nkv6GfmgOxpyfntVbdO0-74" target="Nkv6GfmgOxpyfntVbdO0-76" edge="1">
          <mxGeometry relative="1" as="geometry" />
        </mxCell>
        <mxCell id="Nkv6GfmgOxpyfntVbdO0-74" value="Name" style="html=1;fontSize=10;" parent="1" vertex="1">
          <mxGeometry x="340" y="330" width="110" height="50" as="geometry" />
        </mxCell>
        <mxCell id="Nkv6GfmgOxpyfntVbdO0-76" value="Year" style="html=1;fontSize=10;" parent="1" vertex="1">
          <mxGeometry x="530" y="330" width="110" height="50" as="geometry" />
        </mxCell>
        <mxCell id="Nkv6GfmgOxpyfntVbdO0-78" value="Male" style="html=1;fontSize=10;" parent="1" vertex="1">
          <mxGeometry x="30" y="500" width="110" height="50" as="geometry" />
        </mxCell>
        <mxCell id="Nkv6GfmgOxpyfntVbdO0-81" value="Female" style="html=1;fontSize=10;" parent="1" vertex="1">
          <mxGeometry x="240" y="500" width="110" height="50" as="geometry" />
        </mxCell>
        <mxCell id="SR0_ICi-4jaHeDzFaKAb-1" value="0..1000" style="text;html=1;strokeColor=none;fillColor=none;align=center;verticalAlign=middle;whiteSpace=wrap;rounded=0;" vertex="1" parent="1">
          <mxGeometry x="450" y="340" width="50" height="20" as="geometry" />
        </mxCell>
        <mxCell id="SR0_ICi-4jaHeDzFaKAb-3" value="*" style="text;html=1;strokeColor=none;fillColor=none;align=center;verticalAlign=middle;whiteSpace=wrap;rounded=0;" vertex="1" parent="1">
          <mxGeometry x="500" y="340" width="40" height="20" as="geometry" />
        </mxCell>
        <mxCell id="SR0_ICi-4jaHeDzFaKAb-4" value="0..2" style="text;html=1;strokeColor=none;fillColor=none;align=center;verticalAlign=middle;whiteSpace=wrap;rounded=0;" vertex="1" parent="1">
          <mxGeometry x="240" y="340" width="40" height="20" as="geometry" />
        </mxCell>
        <mxCell id="SR0_ICi-4jaHeDzFaKAb-5" value="*" style="text;html=1;strokeColor=none;fillColor=none;align=center;verticalAlign=middle;whiteSpace=wrap;rounded=0;" vertex="1" parent="1">
          <mxGeometry x="300" y="340" width="40" height="20" as="geometry" />
        </mxCell>
      </root>
    </mxGraphModel>
  </diagram>
</mxfile>
